<mxfile host="Electron" modified="2023-11-15T19:50:33.956Z" agent="Mozilla/5.0 (Macintosh; Intel Mac OS X 10_15_7) AppleWebKit/537.36 (KHTML, like Gecko) draw.io/22.0.3 Chrome/114.0.5735.289 Electron/25.8.4 Safari/537.36" etag="gBNKHRls_HKb-Oa4xfRN" version="22.0.3" type="device">
  <diagram name="Page-1" id="aEG18PFywMH1lhwkNix8">
    <mxGraphModel dx="587" dy="605" grid="1" gridSize="10" guides="1" tooltips="1" connect="1" arrows="1" fold="1" page="1" pageScale="1" pageWidth="827" pageHeight="1169" math="0" shadow="0">
      <root>
        <mxCell id="0" />
        <mxCell id="1" parent="0" />
        <mxCell id="y9fSMD07-iGmlU_4cDuL-1" value="" style="ellipse;html=1;shape=startState;fillColor=#000000;strokeColor=#ff0000;" vertex="1" parent="1">
          <mxGeometry x="105.5" y="40" width="30" height="30" as="geometry" />
        </mxCell>
        <mxCell id="y9fSMD07-iGmlU_4cDuL-2" value="" style="edgeStyle=orthogonalEdgeStyle;html=1;verticalAlign=bottom;endArrow=open;endSize=8;strokeColor=#ff0000;rounded=0;" edge="1" source="y9fSMD07-iGmlU_4cDuL-1" parent="1">
          <mxGeometry relative="1" as="geometry">
            <mxPoint x="120.5" y="130" as="targetPoint" />
          </mxGeometry>
        </mxCell>
        <mxCell id="y9fSMD07-iGmlU_4cDuL-3" value="Inscrire a" style="rounded=1;whiteSpace=wrap;html=1;arcSize=40;fontColor=#000000;fillColor=#ffffc0;strokeColor=#ff0000;" vertex="1" parent="1">
          <mxGeometry x="60.5" y="130" width="120" height="40" as="geometry" />
        </mxCell>
        <mxCell id="y9fSMD07-iGmlU_4cDuL-4" value="" style="edgeStyle=orthogonalEdgeStyle;html=1;verticalAlign=bottom;endArrow=open;endSize=8;strokeColor=#ff0000;rounded=0;" edge="1" source="y9fSMD07-iGmlU_4cDuL-3" parent="1">
          <mxGeometry relative="1" as="geometry">
            <mxPoint x="120.5" y="230" as="targetPoint" />
          </mxGeometry>
        </mxCell>
        <mxCell id="y9fSMD07-iGmlU_4cDuL-5" value="Inscrire b" style="rounded=1;whiteSpace=wrap;html=1;arcSize=40;fontColor=#000000;fillColor=#ffffc0;strokeColor=#ff0000;" vertex="1" parent="1">
          <mxGeometry x="60.5" y="230" width="120" height="40" as="geometry" />
        </mxCell>
        <mxCell id="y9fSMD07-iGmlU_4cDuL-6" value="" style="edgeStyle=orthogonalEdgeStyle;html=1;verticalAlign=bottom;endArrow=open;endSize=8;strokeColor=#ff0000;rounded=0;" edge="1" source="y9fSMD07-iGmlU_4cDuL-5" parent="1">
          <mxGeometry relative="1" as="geometry">
            <mxPoint x="120.5" y="330" as="targetPoint" />
          </mxGeometry>
        </mxCell>
        <mxCell id="y9fSMD07-iGmlU_4cDuL-7" value="Inscrire c" style="rounded=1;whiteSpace=wrap;html=1;arcSize=40;fontColor=#000000;fillColor=#ffffc0;strokeColor=#ff0000;" vertex="1" parent="1">
          <mxGeometry x="60.5" y="330" width="120" height="40" as="geometry" />
        </mxCell>
        <mxCell id="y9fSMD07-iGmlU_4cDuL-8" value="" style="edgeStyle=orthogonalEdgeStyle;html=1;verticalAlign=bottom;endArrow=open;endSize=8;strokeColor=#ff0000;rounded=0;" edge="1" source="y9fSMD07-iGmlU_4cDuL-7" parent="1">
          <mxGeometry relative="1" as="geometry">
            <mxPoint x="120.5" y="430" as="targetPoint" />
          </mxGeometry>
        </mxCell>
        <mxCell id="y9fSMD07-iGmlU_4cDuL-14" style="edgeStyle=orthogonalEdgeStyle;rounded=0;orthogonalLoop=1;jettySize=auto;html=1;exitX=0.5;exitY=1;exitDx=0;exitDy=0;" edge="1" parent="1" source="y9fSMD07-iGmlU_4cDuL-11">
          <mxGeometry relative="1" as="geometry">
            <mxPoint x="120.16666666666663" y="570" as="targetPoint" />
          </mxGeometry>
        </mxCell>
        <mxCell id="y9fSMD07-iGmlU_4cDuL-16" value="Oui" style="edgeLabel;html=1;align=center;verticalAlign=middle;resizable=0;points=[];" vertex="1" connectable="0" parent="y9fSMD07-iGmlU_4cDuL-14">
          <mxGeometry x="0.0395" y="1" relative="1" as="geometry">
            <mxPoint as="offset" />
          </mxGeometry>
        </mxCell>
        <mxCell id="y9fSMD07-iGmlU_4cDuL-15" style="edgeStyle=orthogonalEdgeStyle;rounded=0;orthogonalLoop=1;jettySize=auto;html=1;exitX=1;exitY=0.5;exitDx=0;exitDy=0;" edge="1" parent="1" source="y9fSMD07-iGmlU_4cDuL-11">
          <mxGeometry relative="1" as="geometry">
            <mxPoint x="271.5" y="465.66666666666674" as="targetPoint" />
          </mxGeometry>
        </mxCell>
        <mxCell id="y9fSMD07-iGmlU_4cDuL-17" value="Non" style="edgeLabel;html=1;align=center;verticalAlign=middle;resizable=0;points=[];" vertex="1" connectable="0" parent="y9fSMD07-iGmlU_4cDuL-15">
          <mxGeometry x="-0.0576" y="3" relative="1" as="geometry">
            <mxPoint as="offset" />
          </mxGeometry>
        </mxCell>
        <mxCell id="y9fSMD07-iGmlU_4cDuL-11" value="a&amp;gt;=b ET b&amp;lt;=c" style="rhombus;whiteSpace=wrap;html=1;fontColor=#000000;fillColor=#ffffc0;strokeColor=#ff0000;" vertex="1" parent="1">
          <mxGeometry x="50" y="430" width="141" height="70" as="geometry" />
        </mxCell>
        <mxCell id="y9fSMD07-iGmlU_4cDuL-18" value="Afficher a,b,c" style="rounded=1;whiteSpace=wrap;html=1;arcSize=40;fontColor=#000000;fillColor=#ffffc0;strokeColor=#ff0000;" vertex="1" parent="1">
          <mxGeometry x="60.5" y="570" width="120" height="40" as="geometry" />
        </mxCell>
        <mxCell id="y9fSMD07-iGmlU_4cDuL-19" value="" style="edgeStyle=orthogonalEdgeStyle;html=1;verticalAlign=bottom;endArrow=open;endSize=8;strokeColor=#ff0000;rounded=0;" edge="1" source="y9fSMD07-iGmlU_4cDuL-18" parent="1">
          <mxGeometry relative="1" as="geometry">
            <mxPoint x="120.5" y="670" as="targetPoint" />
          </mxGeometry>
        </mxCell>
        <mxCell id="y9fSMD07-iGmlU_4cDuL-20" value="" style="ellipse;html=1;shape=endState;fillColor=#000000;strokeColor=#ff0000;" vertex="1" parent="1">
          <mxGeometry x="105.5" y="670" width="30" height="30" as="geometry" />
        </mxCell>
        <mxCell id="y9fSMD07-iGmlU_4cDuL-24" style="edgeStyle=orthogonalEdgeStyle;rounded=0;orthogonalLoop=1;jettySize=auto;html=1;" edge="1" parent="1" source="y9fSMD07-iGmlU_4cDuL-21">
          <mxGeometry relative="1" as="geometry">
            <mxPoint x="410" y="465" as="targetPoint" />
          </mxGeometry>
        </mxCell>
        <mxCell id="y9fSMD07-iGmlU_4cDuL-25" style="edgeStyle=orthogonalEdgeStyle;rounded=0;orthogonalLoop=1;jettySize=auto;html=1;" edge="1" parent="1" source="y9fSMD07-iGmlU_4cDuL-21">
          <mxGeometry relative="1" as="geometry">
            <mxPoint x="316.5" y="560" as="targetPoint" />
          </mxGeometry>
        </mxCell>
        <mxCell id="y9fSMD07-iGmlU_4cDuL-21" value="b&amp;lt;=c ET c&amp;lt;=a" style="rhombus;whiteSpace=wrap;html=1;fontColor=#000000;fillColor=#ffffc0;strokeColor=#ff0000;" vertex="1" parent="1">
          <mxGeometry x="271.5" y="440" width="90" height="50" as="geometry" />
        </mxCell>
        <mxCell id="y9fSMD07-iGmlU_4cDuL-26" value="Afficher b,c,a" style="rounded=1;whiteSpace=wrap;html=1;arcSize=40;fontColor=#000000;fillColor=#ffffc0;strokeColor=#ff0000;" vertex="1" parent="1">
          <mxGeometry x="256.5" y="560" width="120" height="40" as="geometry" />
        </mxCell>
        <mxCell id="y9fSMD07-iGmlU_4cDuL-27" value="" style="edgeStyle=orthogonalEdgeStyle;html=1;verticalAlign=bottom;endArrow=open;endSize=8;strokeColor=#ff0000;rounded=0;" edge="1" source="y9fSMD07-iGmlU_4cDuL-26" parent="1">
          <mxGeometry relative="1" as="geometry">
            <mxPoint x="316.5" y="660" as="targetPoint" />
          </mxGeometry>
        </mxCell>
        <mxCell id="y9fSMD07-iGmlU_4cDuL-29" value="" style="ellipse;html=1;shape=endState;fillColor=#000000;strokeColor=#ff0000;" vertex="1" parent="1">
          <mxGeometry x="301.5" y="660" width="30" height="30" as="geometry" />
        </mxCell>
        <mxCell id="y9fSMD07-iGmlU_4cDuL-33" style="edgeStyle=orthogonalEdgeStyle;rounded=0;orthogonalLoop=1;jettySize=auto;html=1;" edge="1" parent="1" source="y9fSMD07-iGmlU_4cDuL-30">
          <mxGeometry relative="1" as="geometry">
            <mxPoint x="460" y="560" as="targetPoint" />
          </mxGeometry>
        </mxCell>
        <mxCell id="y9fSMD07-iGmlU_4cDuL-34" style="edgeStyle=orthogonalEdgeStyle;rounded=0;orthogonalLoop=1;jettySize=auto;html=1;" edge="1" parent="1" source="y9fSMD07-iGmlU_4cDuL-30">
          <mxGeometry relative="1" as="geometry">
            <mxPoint x="550" y="465" as="targetPoint" />
          </mxGeometry>
        </mxCell>
        <mxCell id="y9fSMD07-iGmlU_4cDuL-30" value="c&amp;lt;=a ET a&amp;lt;=b" style="rhombus;whiteSpace=wrap;html=1;fontColor=#000000;fillColor=#ffffc0;strokeColor=#ff0000;" vertex="1" parent="1">
          <mxGeometry x="410" y="440" width="100" height="50" as="geometry" />
        </mxCell>
        <mxCell id="y9fSMD07-iGmlU_4cDuL-35" value="Afficher c,a,b" style="rounded=1;whiteSpace=wrap;html=1;arcSize=40;fontColor=#000000;fillColor=#ffffc0;strokeColor=#ff0000;" vertex="1" parent="1">
          <mxGeometry x="410" y="560" width="120" height="40" as="geometry" />
        </mxCell>
        <mxCell id="y9fSMD07-iGmlU_4cDuL-36" value="" style="edgeStyle=orthogonalEdgeStyle;html=1;verticalAlign=bottom;endArrow=open;endSize=8;strokeColor=#ff0000;rounded=0;" edge="1" parent="1">
          <mxGeometry relative="1" as="geometry">
            <mxPoint x="460" y="660" as="targetPoint" />
            <mxPoint x="460" y="600" as="sourcePoint" />
          </mxGeometry>
        </mxCell>
        <mxCell id="y9fSMD07-iGmlU_4cDuL-42" style="edgeStyle=orthogonalEdgeStyle;rounded=0;orthogonalLoop=1;jettySize=auto;html=1;" edge="1" parent="1" source="y9fSMD07-iGmlU_4cDuL-39">
          <mxGeometry relative="1" as="geometry">
            <mxPoint x="600" y="560" as="targetPoint" />
          </mxGeometry>
        </mxCell>
        <mxCell id="y9fSMD07-iGmlU_4cDuL-43" style="edgeStyle=orthogonalEdgeStyle;rounded=0;orthogonalLoop=1;jettySize=auto;html=1;" edge="1" parent="1" source="y9fSMD07-iGmlU_4cDuL-39">
          <mxGeometry relative="1" as="geometry">
            <mxPoint x="700" y="465" as="targetPoint" />
          </mxGeometry>
        </mxCell>
        <mxCell id="y9fSMD07-iGmlU_4cDuL-39" value="a&amp;lt;=c ET c&amp;lt;=b" style="rhombus;whiteSpace=wrap;html=1;fontColor=#000000;fillColor=#ffffc0;strokeColor=#ff0000;" vertex="1" parent="1">
          <mxGeometry x="550" y="437.5" width="100" height="55" as="geometry" />
        </mxCell>
        <mxCell id="y9fSMD07-iGmlU_4cDuL-49" style="edgeStyle=orthogonalEdgeStyle;rounded=0;orthogonalLoop=1;jettySize=auto;html=1;" edge="1" parent="1" source="y9fSMD07-iGmlU_4cDuL-44">
          <mxGeometry relative="1" as="geometry">
            <mxPoint x="755" y="560" as="targetPoint" />
          </mxGeometry>
        </mxCell>
        <mxCell id="y9fSMD07-iGmlU_4cDuL-50" style="edgeStyle=orthogonalEdgeStyle;rounded=0;orthogonalLoop=1;jettySize=auto;html=1;" edge="1" parent="1" source="y9fSMD07-iGmlU_4cDuL-44">
          <mxGeometry relative="1" as="geometry">
            <mxPoint x="870" y="466.25" as="targetPoint" />
          </mxGeometry>
        </mxCell>
        <mxCell id="y9fSMD07-iGmlU_4cDuL-44" value="b&amp;lt;=a ET a&amp;lt;=c" style="rhombus;whiteSpace=wrap;html=1;fontColor=#000000;fillColor=#ffffc0;strokeColor=#ff0000;" vertex="1" parent="1">
          <mxGeometry x="700" y="437.5" width="110" height="57.5" as="geometry" />
        </mxCell>
        <mxCell id="y9fSMD07-iGmlU_4cDuL-47" value="Afficher a,c,b" style="rounded=1;whiteSpace=wrap;html=1;arcSize=40;fontColor=#000000;fillColor=#ffffc0;strokeColor=#ff0000;" vertex="1" parent="1">
          <mxGeometry x="540" y="560" width="120" height="40" as="geometry" />
        </mxCell>
        <mxCell id="y9fSMD07-iGmlU_4cDuL-48" value="" style="edgeStyle=orthogonalEdgeStyle;html=1;verticalAlign=bottom;endArrow=open;endSize=8;strokeColor=#ff0000;rounded=0;" edge="1" source="y9fSMD07-iGmlU_4cDuL-47" parent="1">
          <mxGeometry relative="1" as="geometry">
            <mxPoint x="600" y="660" as="targetPoint" />
          </mxGeometry>
        </mxCell>
        <mxCell id="y9fSMD07-iGmlU_4cDuL-58" style="edgeStyle=orthogonalEdgeStyle;rounded=0;orthogonalLoop=1;jettySize=auto;html=1;entryX=0.5;entryY=0;entryDx=0;entryDy=0;" edge="1" parent="1" source="y9fSMD07-iGmlU_4cDuL-51" target="y9fSMD07-iGmlU_4cDuL-56">
          <mxGeometry relative="1" as="geometry">
            <mxPoint x="920" y="530" as="targetPoint" />
          </mxGeometry>
        </mxCell>
        <mxCell id="y9fSMD07-iGmlU_4cDuL-51" value="a&amp;lt;=b ET b&amp;lt;=a" style="rhombus;whiteSpace=wrap;html=1;fontColor=#000000;fillColor=#ffffc0;strokeColor=#ff0000;" vertex="1" parent="1">
          <mxGeometry x="870" y="435" width="100" height="60" as="geometry" />
        </mxCell>
        <mxCell id="y9fSMD07-iGmlU_4cDuL-54" value="Afficher b,a,c" style="rounded=1;whiteSpace=wrap;html=1;arcSize=40;fontColor=#000000;fillColor=#ffffc0;strokeColor=#ff0000;" vertex="1" parent="1">
          <mxGeometry x="695" y="560" width="120" height="40" as="geometry" />
        </mxCell>
        <mxCell id="y9fSMD07-iGmlU_4cDuL-55" value="" style="edgeStyle=orthogonalEdgeStyle;html=1;verticalAlign=bottom;endArrow=open;endSize=8;strokeColor=#ff0000;rounded=0;" edge="1" source="y9fSMD07-iGmlU_4cDuL-54" parent="1">
          <mxGeometry relative="1" as="geometry">
            <mxPoint x="755" y="660" as="targetPoint" />
          </mxGeometry>
        </mxCell>
        <mxCell id="y9fSMD07-iGmlU_4cDuL-59" style="edgeStyle=orthogonalEdgeStyle;rounded=0;orthogonalLoop=1;jettySize=auto;html=1;" edge="1" parent="1" source="y9fSMD07-iGmlU_4cDuL-56">
          <mxGeometry relative="1" as="geometry">
            <mxPoint x="920" y="660" as="targetPoint" />
          </mxGeometry>
        </mxCell>
        <mxCell id="y9fSMD07-iGmlU_4cDuL-56" value="Afficher c,b,a" style="rounded=1;whiteSpace=wrap;html=1;arcSize=40;fontColor=#000000;fillColor=#ffffc0;strokeColor=#ff0000;" vertex="1" parent="1">
          <mxGeometry x="860" y="560" width="120" height="40" as="geometry" />
        </mxCell>
        <mxCell id="y9fSMD07-iGmlU_4cDuL-60" value="" style="ellipse;html=1;shape=endState;fillColor=#000000;strokeColor=#ff0000;" vertex="1" parent="1">
          <mxGeometry x="445" y="660" width="30" height="30" as="geometry" />
        </mxCell>
        <mxCell id="y9fSMD07-iGmlU_4cDuL-61" value="" style="ellipse;html=1;shape=endState;fillColor=#000000;strokeColor=#ff0000;" vertex="1" parent="1">
          <mxGeometry x="585" y="660" width="30" height="30" as="geometry" />
        </mxCell>
        <mxCell id="y9fSMD07-iGmlU_4cDuL-62" value="" style="ellipse;html=1;shape=endState;fillColor=#000000;strokeColor=#ff0000;" vertex="1" parent="1">
          <mxGeometry x="740" y="660" width="30" height="30" as="geometry" />
        </mxCell>
        <mxCell id="y9fSMD07-iGmlU_4cDuL-63" value="" style="ellipse;html=1;shape=endState;fillColor=#000000;strokeColor=#ff0000;" vertex="1" parent="1">
          <mxGeometry x="905" y="660" width="30" height="30" as="geometry" />
        </mxCell>
      </root>
    </mxGraphModel>
  </diagram>
</mxfile>
